<?xml version="1.0" standalone="no"?>
<!DOCTYPE svg PUBLIC "-//W3C//DTD SVG 20010904//EN"
 "http://www.w3.org/TR/2001/REC-SVG-20010904/DTD/svg10.dtd">
<svg version="1.0" xmlns="http://www.w3.org/2000/svg"
 width="461.000000pt" height="423.000000pt" viewBox="0 0 461.000000 423.000000"
 preserveAspectRatio="xMidYMid meet">
<metadata>
Created by potrace 1.16, written by Peter Selinger 2001-2019
</metadata>
<g transform="translate(0.000000,423.000000) scale(0.100000,-0.100000)"
fill="#000000" stroke="none">
<path d="M875 3984 c-282 -70 -454 -150 -554 -259 -23 -25 -46 -57 -51 -71
-13 -33 -12 -107 1 -164 9 -42 8 -49 -35 -135 -41 -81 -46 -97 -46 -159 0 -59
6 -82 42 -165 29 -65 42 -109 41 -136 -6 -220 -5 -230 21 -305 28 -82 54 -114
138 -167 46 -29 70 -55 107 -113 59 -90 71 -102 141 -133 65 -29 72 -37 136
-146 92 -158 157 -208 329 -256 47 -13 94 -29 103 -37 9 -7 40 -32 69 -56 29
-24 87 -59 130 -78 43 -18 81 -41 85 -51 3 -10 18 -57 32 -105 56 -185 185
-320 378 -394 69 -26 70 -27 64 -58 -4 -20 1 -54 14 -91 13 -38 20 -84 20
-132 0 -53 5 -84 19 -111 10 -20 23 -67 29 -105 6 -39 19 -78 31 -93 12 -15
21 -36 21 -48 0 -23 29 -75 60 -108 10 -11 22 -34 25 -50 5 -20 18 -34 48 -50
23 -11 57 -33 74 -49 32 -28 33 -28 140 -22 61 3 122 12 139 20 94 43 156 141
168 263 9 91 0 101 -94 104 -41 2 -82 0 -91 -5 -12 -6 -18 1 -29 29 -7 20 -14
52 -15 72 -1 19 -5 103 -9 185 -8 140 -7 152 12 185 11 19 23 51 26 71 7 40
49 83 140 144 63 42 105 94 182 224 61 105 114 148 231 191 73 26 98 41 148
89 74 71 85 77 210 113 179 51 205 67 270 168 52 79 51 79 140 123 79 40 106
66 160 152 20 33 86 107 145 165 126 122 138 147 124 265 -17 147 -13 182 37
265 41 69 44 79 44 145 0 59 -6 82 -35 145 -35 78 -35 77 -29 240 3 65 0 82
-23 125 -41 78 -98 122 -269 208 -164 82 -212 96 -409 123 -219 29 -309 18
-566 -66 -131 -43 -168 -51 -232 -52 -93 0 -127 8 -284 72 -215 88 -252 86
-578 -32 -30 -11 -78 -22 -107 -25 -82 -9 -260 23 -379 68 -59 22 -142 47
-185 54 -80 14 -417 28 -454 19z m315 -75 c89 -11 199 -37 365 -87 238 -72
390 -70 575 8 41 18 99 36 129 41 29 5 62 14 72 19 31 17 82 11 164 -21 43
-16 101 -35 127 -40 27 -6 46 -15 42 -20 -8 -14 -76 -11 -128 7 -26 9 -50 14
-53 10 -10 -10 15 -32 102 -91 106 -72 125 -90 125 -120 0 -38 14 -65 74 -144
91 -121 99 -143 93 -269 -5 -106 -26 -208 -35 -168 -2 11 1 36 8 57 15 43 6
89 -16 89 -27 0 -69 -28 -84 -55 -8 -14 -36 -43 -63 -62 -83 -61 -95 -125 -36
-199 21 -26 29 -48 29 -76 0 -48 22 -59 54 -29 13 13 39 30 57 39 38 19 67 68
51 84 -7 7 -14 3 -22 -12 -8 -15 -19 -20 -37 -18 -39 4 -39 25 -1 26 36 1 68
31 68 63 0 41 18 16 29 -42 17 -82 8 -124 -45 -211 -54 -91 -61 -122 -39 -188
15 -46 15 -54 1 -89 -17 -43 -12 -54 37 -85 18 -11 26 -23 23 -32 -3 -8 -9
-20 -12 -28 -3 -8 6 -25 21 -39 23 -20 25 -28 16 -45 -16 -29 -4 -49 34 -62
42 -14 58 -33 50 -60 -6 -20 -7 -20 -36 4 -16 14 -46 28 -67 31 -20 4 -47 10
-60 16 -41 16 -60 10 -92 -31 -17 -22 -36 -40 -41 -40 -12 0 -12 37 1 45 13 8
13 48 0 61 -8 8 -7 52 0 146 7 74 10 189 8 256 -2 101 -6 123 -22 141 -11 12
-23 21 -28 21 -5 0 -21 -26 -35 -57 -42 -96 -43 -98 -26 -129 10 -21 13 -42 8
-74 -9 -56 -9 -96 0 -137 4 -18 4 -44 1 -58 -6 -23 -10 -25 -41 -19 -44 8 -45
-7 -5 -60 39 -51 41 -103 5 -136 -30 -28 -31 -54 -5 -111 14 -31 20 -66 20
-118 0 -56 4 -79 17 -94 17 -18 17 -19 0 -32 -21 -15 -22 -38 -2 -55 24 -20
18 -51 -17 -87 -27 -28 -32 -42 -36 -92 -3 -36 0 -61 7 -65 17 -11 13 -35 -9
-63 -11 -14 -23 -43 -26 -64 -4 -21 -17 -48 -30 -60 -28 -26 -30 -46 -9 -76
13 -18 13 -22 0 -33 -19 -16 -19 -53 0 -91 15 -28 14 -30 -9 -54 -14 -14 -30
-25 -36 -25 -6 0 -15 -12 -21 -27 -8 -22 -6 -30 14 -52 17 -18 25 -40 26 -71
1 -29 9 -52 23 -67 16 -17 19 -30 14 -54 -5 -27 -1 -38 21 -61 23 -24 25 -31
15 -53 -16 -34 -15 -62 2 -72 7 -4 21 -23 30 -41 9 -17 23 -32 31 -32 8 0 19
-9 25 -19 6 -12 23 -21 43 -23 30 -3 32 -5 32 -42 0 -23 -5 -41 -12 -44 -7 -2
-13 3 -13 12 0 23 -23 10 -42 -25 -15 -25 -23 -30 -50 -27 -41 4 -44 16 -13
62 14 21 23 41 20 46 -10 17 -36 -2 -55 -40 -23 -44 -41 -54 -75 -38 -35 16
-31 38 16 92 23 26 39 49 36 52 -13 13 -46 -9 -76 -51 -18 -25 -38 -45 -45
-45 -7 0 -23 11 -35 24 -34 36 -22 67 59 146 68 66 83 90 57 90 -19 0 -98 -53
-131 -89 -44 -46 -66 -38 -66 24 0 35 92 131 142 147 52 18 62 38 18 38 -42 0
-86 -24 -138 -74 -35 -34 -44 -38 -52 -26 -31 49 5 115 95 174 30 21 53 41 50
46 -7 12 -59 2 -114 -21 -57 -25 -75 -12 -68 44 9 69 70 112 190 137 31 6 57
15 57 20 0 27 -108 27 -185 0 -52 -18 -61 -19 -74 -6 -22 23 1 87 44 125 32
27 54 36 138 55 15 4 27 11 27 16 0 19 -128 15 -179 -6 -50 -21 -54 -18 -46
24 14 76 84 127 223 162 83 21 33 47 -72 37 -33 -3 -78 -13 -98 -21 -64 -27
-71 -23 -66 34 9 89 73 130 261 169 48 9 88 21 88 27 1 14 -80 25 -137 19 -29
-3 -80 -15 -115 -26 -97 -29 -109 -27 -109 19 0 89 96 156 243 168 86 8 101
24 41 44 -33 11 -96 11 -258 -3 -16 -1 -31 3 -33 8 -7 22 26 48 91 70 37 12
67 26 66 31 0 5 -36 8 -80 7 -70 -1 -80 1 -80 16 0 31 71 46 222 46 83 0 139
4 140 10 6 21 -107 47 -229 52 -82 4 -127 10 -134 19 -5 7 -9 34 -7 61 l3 48
55 13 c35 8 103 12 185 10 116 -3 130 -1 133 14 5 27 -37 33 -216 32 -160 -1
-163 0 -168 22 -12 47 -1 68 50 93 62 31 166 38 261 18 70 -15 92 -11 82 16
-12 32 -105 52 -237 51 -69 0 -134 -3 -145 -5 -17 -3 -20 1 -20 36 l0 39 75
29 c56 22 98 31 168 34 51 3 95 10 99 15 11 19 -23 28 -110 28 -69 0 -106 -6
-164 -25 -57 -20 -78 -23 -84 -14 -7 11 -3 66 7 97 7 24 114 65 183 70 58 4
79 0 171 -33 127 -45 160 -52 160 -34 -1 20 -89 85 -157 116 -76 35 -223 44
-293 18 -73 -27 -74 -26 -71 30 2 27 8 54 14 58 20 14 149 0 215 -23 62 -22
80 -22 67 0 -15 25 -109 60 -200 75 -111 18 -135 28 -135 55 0 11 2 20 4 20 2
0 41 7 87 16 46 8 117 14 159 12 61 -2 75 0 75 12 0 24 -93 49 -186 51 -60 1
-89 6 -102 17 -9 8 -27 20 -40 26 -25 13 -47 80 -31 96 21 21 244 31 422 19
95 -6 176 -8 180 -4 20 19 -107 67 -229 86 -38 6 -108 9 -156 7 -63 -2 -91 1
-98 10 -8 9 -26 10 -73 4 -35 -5 -65 -5 -68 0 -3 5 24 22 60 39 36 17 66 35
66 39 0 5 -10 12 -22 16 -18 6 -10 10 42 20 85 17 151 17 290 0 63 -8 118 -12
122 -10 31 19 -30 50 -173 89 -103 27 -155 31 -243 14 -32 -6 -60 -8 -63 -5
-3 2 18 16 46 30 47 24 66 46 40 46 -27 0 7 21 68 41 54 18 116 26 208 29 5 0
4 5 -2 11 -29 29 -211 20 -426 -22 -176 -34 -280 -24 -525 51 -70 21 -165 46
-211 54 -239 45 -541 -8 -789 -140 -36 -19 -67 -33 -69 -30 -11 11 121 101
212 146 192 94 382 126 595 99z m2557 -84 c124 -27 352 -109 339 -122 -2 -2
-30 5 -62 17 -80 28 -250 66 -356 80 -155 21 -330 -8 -623 -100 -80 -25 -112
-31 -160 -27 -63 5 -136 33 -143 55 -3 11 0 12 17 2 12 -6 53 -11 91 -11 55 0
96 10 220 52 83 28 186 57 228 65 98 17 349 11 449 -11z m-2767 -129 c0 -15
-33 -30 -160 -71 -104 -33 -231 -89 -287 -127 -75 -50 -126 -140 -70 -122 12
3 33 12 47 19 38 19 151 47 159 39 3 -4 0 -9 -7 -12 -38 -13 -183 -92 -215
-116 -45 -35 -50 -59 -9 -50 69 16 209 67 337 124 77 34 169 73 205 85 89 32
230 69 236 62 16 -16 -23 -38 -136 -78 -97 -34 -192 -81 -370 -183 -222 -126
-269 -148 -327 -149 -38 0 -50 4 -70 27 -32 37 -30 85 7 158 17 33 35 82 41
110 15 68 54 109 152 156 87 42 265 103 357 121 84 17 94 19 103 20 4 0 7 -5
7 -13z m1035 -5 c3 -5 1 -13 -5 -16 -32 -20 -92 -113 -110 -172 -11 -36 -34
-82 -50 -103 -50 -63 -73 -126 -66 -178 3 -25 13 -59 21 -75 19 -38 19 -37 -6
-37 -12 0 -23 -8 -26 -20 -7 -27 -33 -26 -33 2 0 12 -13 45 -30 75 -54 95 -36
167 72 288 32 37 67 84 79 106 43 85 134 161 154 130z m1727 -35 c116 -22 283
-81 408 -144 l115 -57 -4 -45 c-1 -25 -5 -47 -6 -49 -2 -1 -39 20 -82 49 -111
73 -298 164 -443 215 -133 47 -129 58 12 31z m-179 -226 c283 -71 716 -268
759 -345 7 -11 -23 -80 -57 -135 -3 -5 -48 27 -101 71 -153 128 -356 256 -587
370 -139 69 -140 70 -14 39z m-2488 -199 c-3 -5 -67 -51 -143 -102 -190 -129
-277 -193 -345 -258 -54 -51 -127 -140 -127 -155 0 -15 27 -3 74 32 55 41 187
122 200 122 4 0 -20 -30 -54 -67 -70 -77 -110 -151 -110 -205 0 -21 2 -38 3
-38 2 0 44 40 93 88 89 87 198 167 327 237 37 21 71 34 75 31 3 -4 -27 -37
-68 -74 -120 -107 -221 -212 -305 -316 -42 -53 -83 -96 -90 -96 -7 0 -18 7
-25 15 -6 8 -37 31 -68 51 -108 70 -135 105 -153 197 -15 78 -4 118 44 167 83
85 309 240 432 296 142 66 257 101 240 75z m2693 -122 c157 -83 203 -110 272
-157 85 -59 157 -128 181 -174 26 -50 26 -140 0 -182 -28 -43 -207 -216 -225
-216 -26 0 -71 47 -136 142 -86 126 -145 203 -204 266 -27 29 -47 54 -44 57
13 13 175 -109 275 -208 62 -61 115 -108 119 -104 7 7 -12 69 -39 122 -24 48
-87 135 -140 193 -22 23 -34 42 -27 42 23 0 179 -93 242 -143 33 -27 62 -46
65 -43 21 21 -215 269 -357 375 -78 58 -102 81 -85 81 3 0 50 -23 103 -51z
m-1938 -356 c0 -4 -10 -42 -21 -85 -15 -54 -38 -104 -71 -155 -32 -49 -48 -83
-44 -96 3 -11 -6 -36 -22 -59 -24 -37 -25 -41 -9 -53 22 -16 21 -24 -2 -49
-12 -13 -20 -39 -23 -71 l-3 -50 50 -5 c28 -3 67 -15 88 -28 21 -12 47 -22 58
-22 17 0 20 5 15 28 -11 54 -8 339 4 412 7 41 18 108 24 148 9 62 11 10 10
-305 0 -208 -2 -382 -3 -388 -1 -5 -7 -3 -14 6 -7 8 -36 37 -66 64 l-55 48
-84 -6 c-82 -5 -84 -5 -77 17 4 11 8 35 9 52 0 17 6 37 13 46 7 8 12 37 11 64
-1 43 10 74 90 242 51 106 92 203 92 216 0 12 3 26 7 29 8 9 23 9 23 0z m-530
-220 c-73 -56 -148 -142 -209 -240 -57 -93 -165 -213 -191 -213 -5 0 -21 21
-34 48 -30 58 -69 96 -121 118 -65 26 -68 32 -40 68 52 68 267 236 301 236 7
0 -3 -24 -23 -52 -69 -104 -123 -231 -102 -244 25 -15 124 49 223 145 92 88
192 161 221 161 6 0 -6 -12 -25 -27z m2147 -138 c54 -56 127 -139 163 -184 36
-44 72 -79 80 -78 19 3 24 53 11 104 -6 21 -31 74 -56 117 -25 44 -45 81 -45
83 0 1 27 -17 60 -41 33 -24 92 -56 132 -71 40 -15 83 -31 96 -36 26 -10 29
-40 5 -61 -10 -9 -47 -32 -83 -51 -49 -26 -72 -47 -100 -88 -20 -30 -40 -54
-45 -54 -5 0 -55 67 -111 148 -56 82 -142 196 -190 255 -49 59 -91 111 -93
116 -9 23 85 -63 176 -159z m-38 -351 c67 -64 120 -118 118 -121 -10 -9 -113
-31 -119 -25 -6 7 -35 58 -122 215 -50 90 -34 81 123 -69z m-2035 9 c-44 -110
-103 -223 -118 -223 -7 0 -33 7 -56 15 -23 8 -53 15 -66 15 -34 0 -30 13 14
46 71 54 157 134 202 189 54 66 62 53 24 -42z m376 -53 c36 -19 43 -71 25
-182 -13 -74 -16 -136 -12 -232 5 -149 23 -214 102 -368 25 -49 41 -88 37 -88
-19 0 -131 80 -171 121 -58 60 -115 179 -142 294 -18 80 -21 115 -16 208 10
206 32 257 113 257 25 0 54 -4 64 -10z m1126 -28 c38 -30 48 -62 46 -152 -2
-108 -44 -325 -77 -399 -36 -78 -126 -160 -238 -217 -81 -40 -117 -52 -117
-39 0 2 19 22 43 44 51 48 107 140 147 244 37 95 50 249 31 364 -11 62 -10 75
4 102 32 62 116 90 161 53z m-1014 -489 c27 -32 60 -97 73 -143 7 -25 23 -68
35 -97 19 -42 22 -58 14 -85 l-10 -33 -42 75 c-47 84 -97 206 -107 263 -6 29
-4 37 7 37 8 0 22 -8 30 -17z"/>
</g>
</svg>
